<svg xmlns="http://www.w3.org/2000/svg" width="391" height="780" fill="none"><path fill="#fff" fill-rule="evenodd" d="M91.416 271.171c-6.361 7.438-5.799 9.507-2.41 17.018 7.489 17.426 18.226 35.142 30.415 51.301-.805-36.254-1.497-72.706-2.687-109.291-7.247 14.136-14.965 26.905-25.317 40.972m-1.2 448.077c-4.005-.387-32.187.654-24.645-7.561-2.328-5.053 4.176-9.316 8.184-13.16 3.75-3.577 7.445-7.551 11.296-12.149 3.586-4.263 7.628-9.302 10.241-15.182.579-.922 1.166-1.567 1.748-1.92l.336-.203.209-.332c2.206-3.519 4.027-7.156 6.031-10.741-4.902-1.77-9.355-3.548-14.907-6.005 7.834-46.123 19.575-91.059 27.166-137.317 4.621-40.254 7.101-80.887 17.675-120.531l1.352.104.754-2.598c-1.11-.028-3.36-.103-4.474-.147l.261 1.329c-5.041-.583-9.98-2.019-14.88-3.237-2.501-.342-5.008-2.13-4.108-5.11.289-4.324 1.184-8.541 1.605-12.864a75.635 75.635 0 0 1-4.816-3.604c-4.167 1.964-9.203 8.308-13.76 6.694-10.648-14.29-19.584-31.467-27.671-45.19-19.532-31.736-25.732-51.574-5.587-84.665 17.417-27.721 36.204-71.782 71.119-78.74 3.92-.731 8.028-.762 11.795-2.548.194-2.56 1.473-4.031 2.41-4.052 2.275-.499 4.773-1.303 6.995-1.323.783-.327 1.739-.058 2.492.089 2.239-4.493 2.039-10.23 4.492-14.442.089-3.192 1.062-6.718 10.901-7.36 6.697-.558 16.182-1.097 21.535 1.829 3.746 3.015 3.784 9.769 3.315 14.528-.516 3.495-.286 7.56 2.452 11.665 7.803-2.408 13.244 2.683 18.128 12.179 20.448 2.784 24.857 4.364 32.79 24.614 3.783 8.781 7.723 18.163 10.672 27.777 3.949 11.752 4.296 24.054 8.136 35.889 10.429 26.085 21.034 42.918 24.374 73.286 1.63 13.408.693 20.056-.856 22.07-4.408-1.274-10.093-2.249-14.722-2.792l4.953 3.766c-4.197 19.026 7.891 73.285-24.884 69.117-.291-.709.244-4.604.384-6.22-.896.063-2.553.122-3.435.011-1.563 4.509-3.91 8.56-5.391 13.147-.732 2.795-1.658 5.608-2.563 8.326-20.64 69.5-24.728 136.407-15.517 206.18l-.416.151-.169.3-.253.095c-.65.868-1.571.905-3.041.908-9.028.317-16.961.724-24.317.929.781 3.906.281 8.017-.063 11.99 4.281-.301 8.209 1.436 12.122 3.523 7.478 3.67 14.925 7.525 22.166 11.739 7.188 4.599 18.812 8.532 13.041 16.798l1.669.655a.718.718 0 0 1 .113.054c.197.703-2.064 3.609-2.733 3.577-15.808.738-29.289-2.953-49.509-6.819-4.629-1.679-27.945-4.535-28.043-8.943.074-1.374 1.494-1.28 2.485-1.452-2.97-14.998 7.071-16.209 8.509-29.818-1.988.379-4.138.703-6.174.145-1.787-29.042 1.084-58.771-2.091-88.097l-3.227-.357c-10.848 31.911-22.096 64.561-30.735 97.707-.164.721-.972.228-1.341-.035-5.646-.134-11.294-.737-16.83-1.687-.133 3.26-.273 6.58-.411 9.837l.854.458c.55.766.318 4.351.219 5.894-.101 1.578-.184 2.72-.044 3.79 1.78 3.51-4.308 11.116-7.529 15.346-7.016 9.079-12.828 22.525-25.838 20.705" clip-rule="evenodd"/><path fill="#000" fill-rule="evenodd" d="M159.873 143.943c1.911-1.293-.81 9.932-.815 11.012l-.048.235c-.477 2.287-1.315 4.947-3.246 6.413a335.883 335.883 0 0 0 3.363 21.732l.802.105c11.903 1.575 23.885 3.741 35.987 2.613 6.521.051 10.837-4.404 13.466-9.931a283.62 283.62 0 0 0-.539-1.952c-8.281-5.065-14.551-15.342-10.82-25.043.159-.415.653-.443.907-.227.041.003.079.037.076.082l-.132 2.052c-.253 4.081-.338 8.299 1.873 11.97 9.01-2.052 14.612 5.45 18.379 12.55l2.707.4c10.353 1.535 20.338 3.354 25.45 13.946l.701 1.487c7.143 15.221 13.8 30.872 17.697 47.261 1.962 8.72 2.672 17.705 5.55 26.209 5.975 15.791 14.396 30.631 18.961 46.98 2.833 5.899 10.806 50.302 2.941 50.639a70.797 70.797 0 0 0-8.621-2.017c.449.342.612.922.527 1.515-1.016 7.117-1.093 14.327-1.088 21.504.537 17.382.056 54.776-26.157 48.774-1.914-.703-.671-3.768-.748-5.908a4.285 4.285 0 0 1-.453-.005c-1.505 4.055-3.615 7.797-4.938 11.919-1.121 3.541-1.904 7.35-3.467 10.741-16.55 58.777-23.382 120.598-16.912 181.434.363 3.642.772 7.281 1.228 10.912-.064 2.326 2.65 11.688.219 12.414-.095.184-.421.395-.616.46-1.468 1.583-3.91.996-5.849 1.206-6.851.305-13.702.586-20.557.813.41 2.905.079 5.853-.164 8.753 4.999.041 9.593 3.08 14.014 5.143a328.552 328.552 0 0 1 19.363 10.36c5.851 4.089 18.922 8.037 14.425 17.309 3.353 1.359-1.307 7.042-3.855 7.106-16.584-.083-33.064-3.841-49.272-7.139-9.208-2.43-19.257-3.353-27.776-7.545-2.419-1.092-1.912-5.446.748-5.851-1.975-14.517 6.04-14.318 8.298-26.412-1.312.214-2.762.093-4.078-.174-3.047 2.815-1.928-19.338-2.342-21.501-.082-22.716.996-45.479-1.427-68.117l-4.118 12.109c-9.6 28.259-19.056 56.592-26.582 85.483-.451 1.744-2.285 1.953-3.455 1.192a113.361 113.361 0 0 1-14.742-1.396c-.094 2.31-.192 4.621-.289 6.932 2.103 1.131.679 8.263.947 10.675 2.29 5.212-6.98 15.361-9.984 19.639-5.408 7.546-10.781 18.107-21.24 18.458l-.319.008a140.8 140.8 0 0 1-23.419-1.38l-.941-.154c-2.205-.368-4.646-.906-5.915-2.866-1.088-1.678-.955-3.844.365-5.126-1.743-6.32 5.044-10.147 8.835-13.996 7.082-6.824 13.519-14.329 19.085-22.435l.32-.757c1.031-2.431 2.264-5.13 4.185-6.294 1.831-2.905 3.398-5.963 5.051-8.966-4.517-1.657-8.965-3.508-13.363-5.456-.876-.39-1.154-1.526-1.001-2.372l.011-.057c8.587-44.544 18.882-88.77 26.889-133.415 5.114-41.146 7.211-82.815 17.963-123.056-5.216-.542-10.408-2.039-15.527-3.319-4.104-.872-6.179-2.955-5.37-7.297.278-3.859 1.052-7.656 1.47-11.5a64.81 64.81 0 0 1-3.197-2.391 82.64 82.64 0 0 1-5.949 4.045c-4.884 3.514-8.655 4.062-11.672-1.699-8.74-13.792-17.168-27.786-25.122-42.045-7.378-13.68-16.522-27.33-18.395-43.08-2.72-28.344 30.57-73.703 47.248-96.738 9.196-11.095 20.397-22.515 34.963-25.741 4.481-.663 9.204-.754 13.475-2.377.347-2.074 1.322-3.984 3.525-4.492 2.316-.512 4.8-1.303 7.134-1.36.527-.149 1.15-.243 1.707-.14 1.597-4.144 1.832-8.813 3.665-12.863ZM70.641 715.02c.4.196.812.367 1.235.518.52.071 1.038.138 1.555.197a47.4 47.4 0 0 1-2.79-.715Zm51.829-40.283c-7.651 2.775-9.753-10.251-24.801-4.98-5.88 10.908-13.494 20.816-22.196 29.624-3.093 3.841-12.248 8.204-7.315 13.837l.756.138c8.568 1.557 17.264 2.794 25.995 2.09 6.598-1.818 11.545-7.101 15.544-12.429 2.893-5.123 6.277-9.945 9.732-14.699 1.899-2.364 2.092-5.373 2.083-8.282.064-1.768.131-3.533.202-5.299Zm85.946-6.394c-3.248-1.19-6.58-.071-9.535 1.389-5.048 2.257-15.98 4.96-20.65 1.363-2.29 3.784-3.057 7.99-2.429 12.355l.005.203c.049 1.793.275 3.247 2.445 3.373l6.087 1.53c20.534 5.15 41.269 10.13 62.406 11.563 5.641-3.52 5.799-8.146-.197-11.368l-1.534-.939c-11.773-7.196-23.82-14.268-36.598-19.469Zm44.671 29.929c-.057.097-.112.195-.168.289.088.043.168.105.244.171 0-.159-.023-.315-.076-.46Zm-150.528-38.563c.079 1.599-.708 3.405-1.261 4.841-.325.849-.66 2.06-1.178 3.032 12.864-3.792 16.78 7.319 21.418 5.009l.141-.074v-.003c-.947-2.161.086-5.204.722-7.359-6.755-1.221-13.388-3.12-19.842-5.446Zm101.658-3.421-3.709.115c-5.769.174-11.539.327-17.313.319.604 4.146-.578 10.985-3.263 14.206-.005.003-.01.003-.012.005 7.6 1.15 14.797-2.329 21.566-5.255.285-3.177 1.534-6.419 2.731-9.39Zm-24.818 12.63c-.23.432-.463.863-.696 1.295.102.111.216.213.338.301-.071-.539.121-1.071.358-1.596Zm10.683-352.611c4.237 21.391 7.581 43.048 8.742 64.86l.01.216c.113 2.207.443 4.668-1.034 6.51-1.531 1.913-3.918 2.155-6.181 2.503-18.983 2.886-38.233 3.861-57.423 3.28-7.084 35.04-11.416 70.515-14.059 106.145-5.741 50.911-18.774 100.678-28.535 150.907 15.138 6.617 30.838 11.313 47.429 11.964 23.484-86.728 67.449-178.258 69.791-265.017.126-.14.428-.107.461.104.774 4.747.444 9.701.273 14.486-.649 14.725-2.289 29.443-4.707 43.975-6.138 36.09-17.476 71.008-29.091 105.647-.389 1.555.2 3.285.219 4.873 2.426 26.491 2.675 53.117 3.456 79.69-.165 2.938.76 6.264-.259 9.023 8.772-1.175 17.588-1.809 26.404-2.543l.066-.043c.365-.232.947-.476 1.283-.064 7.448-.585 14.904-1.121 22.357-1.621-10.569-75.621-3.264-154.45 25.331-225.491-1.811-1.658-1.022-5.352-1.437-7.661-.382-9.421-.361-19.058 1.492-28.334l-.472.028c-5.693.325-30.743 1.329-31.43-2.92-.953-7.198 1.349-14.334 1.819-21.48.844-16.146.64-32.356.529-48.523-4.957.663-9.711-.247-14.613-.434-6.814-.059-13.615.115-20.421-.08ZM101.73 659.412a33.162 33.162 0 0 1-.437 1.671c.22-.498.468-.976.763-1.397l.089-.124-.415-.15Zm81.065-2.687-.406.004-.002.233c.095.158.111.353-.007.509a37.867 37.867 0 0 1-.1 2.152c.157-.967.314-1.934.515-2.898Zm-5.16-.237.021.36c.52-.019 1.045.002 1.563-.024.272-.014.553-.062.835-.112a17.828 17.828 0 0 1-2.419-.224Zm92.428-297.048c-.256.301-.536.484-.822.576.003 6.843-1.379 13.572-5.167 19.497-1.576 2.088-2.466 4.465-3.227 6.942-4.006 11.337-4.75 23.516-3.29 35.388 3.936-5.77 5.5-12.655 6.6-19.445.059-.341.625-.336.686 0 1.33 7.267-.956 14.404-3.69 21.121-1.708 1.219-1.301 4.415-1.506 6.294 29.019 4.226 18.928-51.448 22.645-68.595.069-.472.47-.815.926-.96-4.353-.664-8.763-.712-13.155-.818Zm-136.657 34.203c.036.183.067.365.091.548l.156-.538c-.08-.003-.163-.005-.247-.01Zm19.612-235.496-.508.133c-5.362 1.383-7.097 1.193-7.401 7.663-1.318 8.78-6.183 16.439-8.37 24.929-.876 2.998.05 8.524 4.198 7.712 1.344-.412 2.392 1.398 1.375 2.358-3.004 2.839-5.92 5.766-8.854 8.675 11.778 39.723 27.078 78.414 45.715 115.431.739 1.469-1.477 2.761-2.211 1.291-18.528-37.135-33.937-75.813-45.897-115.547l-.362-1.204c-.528-1.462 6.226-6.705 7.455-8.416-12.332-5.938 4.885-26.732 5.353-36.746-3.529 1.551-7.53.994-11.259 1.619-7.153 1.253-13.431 5.382-19.012 9.84-22.668 20.001-37.154 47.693-51.644 73.794-9.869 17.029-14.626 37.848-4.723 55.963 11.49 23.226 24.82 45.613 38.913 67.346 1.547 2.011 3.929-.301 5.559-1.145 9.373-5.628 17.501-13.286 23.751-22.239-15.153-18.58-28.353-38.885-37.688-61.009l-.13-.256c-2.094-4.207-3.75-9.296-.256-13.258 12.407-15.88 23.442-32.738 33.826-49.99.107-.173.346-.021.268.159a186.211 186.211 0 0 1-3.36 7.179c2.365 35.077 1.965 70.84 2.987 106.14a332.946 332.946 0 0 0 8.5 10.763c9.422-6.488 20.505-10.72 31.888-12.031l.736-.074c4.835-.497 12.82-1.434 13.454 4.839-.784 7.716-16.742 3.378-21.845 7.754 8.365 3.368 17.949 4.317 25.628 9.395 2.463 1.436 7.292 6.011 2.574 7.762-2.058.176-4.184-.623-6.241-.798 2.315.779 4.444 2.099 5.8 4.169.976 1.419 1.688 4.365-.644 4.972-5.317.15-10.611-1.582-15.848-2.444l.465.189c3.818 1.562 9.752 4.367 4.61 8.503-5.147 2.662-11.378-1.867-16.505-3.075-13.809-3.211-24.025 5.588-38.181-3.939-.402 3.184-1.005 6.346-1.247 9.547l-.031.181c-.49 2.922-.07 3.977 3.083 4.536 3.802 1.147 7.784 1.507 11.734 1.72a316.238 316.238 0 0 0 57.033-2.142c2.717-.728 9.1-.041 10.236-3.029-2.129-76.902-34.196-149.264-43.026-225.167-.145-.73-.154-1.474.102-2.053Zm53.6 6.573c-1.517.062-2.929.391-4.437.543.835 1.775 5.244 4.287 4.843 5.169.318.246.641.483.969.713-.456-1.602-.917-3.202-1.379-4.804 16.753 40.796 19.054 89.063 21.28 133.567.734 22.44 1.133 44.949.048 67.375-.604 5.956-2.2 11.976-1.765 17.991 9.832 1.415 19.807 1.536 29.679.489.292-.766.622-1.52.996-2.259 14.779-18.013 6.942-40.587-.174-60.099-4.303.182-8.632-.091-12.939-.038 1.331 4.118 1.674 8.475 2.382 12.733a123.707 123.707 0 0 0 1.805 9.032l.19.797c.267 1.101.62 2.291.233 3.384-.38 1.078-1.691 1.514-2.56.675-1.567-1.786-1.399-4.447-1.905-6.662l-.093-.697c-.863-6.359-1.999-12.955-.422-19.264-1.547-.332-5.778.887-6-1.192.066-3.435-2.427-10.877.348-13.14 1.65-1.258 4.488-.86 6.424-.938 2.237-.091 4.472-.174 6.706-.159-17.959-43.393-12.965-56.75-11.142-99.935l.054-1.318c-.005-.285.454-.356.504-.069 2.745 17.689-.915 35.599.819 53.344 3.08 33.715 24.449 62.663 28.021 96.216 7.705-.893 15.5.203 22.968 2.136a79.39 79.39 0 0 0 .363-4.098c1.418-25.045-7.372-49.369-17.628-71.831-6.146-11.923-9.945-24.649-11.535-37.954-3.088-17.331-10.016-33.656-16.922-49.755-4.366-12.038-13.803-14.876-25.506-16.274a4816.34 4816.34 0 0 1 11.787 19.657c.873 1.984-1.805 3.401-2.974 4.622 14.377 7.839 5.982 32.044 6.28 45.608-1.068 12.463-1.47 24.997-3.351 37.374-.138.858-1.454.607-1.466-.197.173-18.544 2.385-37.014 3.356-55.529l.118-1.35c.756-8.766 1.497-21.412-9.045-23.818-1.423-.232-1.532-2.346-.39-2.981a17.328 17.328 0 0 0 4.045-3.11 3586.613 3586.613 0 0 1-12.034-20.305l-.187-.315c-2.83-4.802-5.46-10.389-10.364-13.334Zm-34.211 176.875c-1.163-3.424-12.45-1.194-15.463-.822-11.11 2.098-22.291 7.013-30.753 14.584-.522.467-1.139.459-1.626.206-3.79 4.841-8.167 9.228-12.967 13.083a54.781 54.781 0 0 0 2.709 2.005c.445.047.846.277 1.027.689 13.207 9.568 22.922 2.105 36.642 3.829 5.122 1.032 9.839 4.29 15.118 4.427 3.874-.881.463-2.5-1.346-3.127-4.097-1.955-8.274-3.737-12.459-5.495l-3.349-1.404c-1.645-.69-1.08-3.176.758-2.742 3.218.758 6.446 1.479 9.675 2.188 6.212 1.266 12.571 2.891 18.848 3.507-1.396-3.877-16.199-8.064-20.503-9.606-1.626-.767-6.262-.621-5.733-3.14.428-2.345 5.361.34 7.006.531 6.714 1.703 13.568 2.735 20.41 3.773-7.349-7.372-18.741-8.008-28.126-11.46l-.205-.046c-1.674-.386-4.023-1.113-2.652-3.03 4.823-7.108 23.796-3.51 22.989-7.95Zm-13.886-39.577c3.423-2.809 5.257 2.959 5.04 5.64.161 2.226.335 4.451.48 6.677-.212 1.74 1.642 8.083-.839 8.141-10.845-.55-21.671-.411-32.519-1.064-.014 2.188-.121 4.373-.009 6.563-.06 2.738.892 5.474.337 8.181-.34 1.245-2.033 1.413-2.694.351-1.982-4.661-.619-10.673.784-15.386-5.312-.982-6.045-5.974-4.645-10.429l-.015-.241c-.078-1.374-.072-2.848.542-3.959 1.641-1.931 5.043-.676 7.303-.822 6.927-.714 13.982-.911 20.828-2.183 1.772-.459 3.579-1.383 5.407-1.469Zm-43.061-65.076c-5.393 10.292-11.598 20.085-18.204 29.621a250.74 250.74 0 0 1-4.345 6.041l-.274.35c-2.95 3.747-6.016 6.855-3.227 11.828 7.306 17.741 17.088 34.402 28.422 49.865-.718-32.57-1.351-65.147-2.372-97.705Zm135.587 71.515c-13.55 2.839-13.804-2.477-11.542 12.569 5.434.037 10.865-.086 16.301.002-1.553-4.202-3.163-8.385-4.759-12.571Zm-90.954-4.25c-7.077 2.459-14.591 2.108-21.982 2.411.015 1.588-7.547.114-8.998.332l-.558-.048c-1.201-.097-2.709-.112-2.722 1.358.385 2.574-1.064 5.392-.166 7.921 1.211 3.406 6.393 3.055 9.252 3.122 4.714.106 9.429.22 14.143.343 4.234.112 8.483.323 12.722.353-.382-3.014-.487-6.105-.717-9.117-.29-2.166.128-4.734-.974-6.675Zm29.757 10.953.024.116c.083-.024.176-.037.257-.059a6.991 6.991 0 0 1-.281-.057Z" clip-rule="evenodd"/><path fill="#fff" fill-rule="evenodd" d="M227.518 106.667c-.901-14.742-5.694-31.457-19.802-38.695-31.101-12.457-71.993 18.913-74.158 50.96-.755 10.969 5.348 22.956 16.501 26.006 2.48 3.279 6.229 5.281 9.931 7.019 44.084 22.825 72.561 4.271 67.528-45.29Z" clip-rule="evenodd"/><path fill="#000" fill-rule="evenodd" d="M237.561 97.496a341.188 341.188 0 0 0-4.935-12.855c-1.686-4.138-3.21-8.366-5.303-12.308-12.507-23.544-35.249-23.544-47.004-20.468-6.097-2.621-17.515-1.882-23.863.483-10.277 3.83-22.804 18.894-27.087 25.662-9.457 14.943-15.359 34.832-9.077 52.1.821 2.257 1.868 4.347 3.047 6.361-.743 1.005-1.597 1.956-2.544 2.891-2.814 2.778-5.628 5.465-8.059 8.598-2.415 3.114-4.418 6.426-5.908 10.077-2.811 6.886-2.947 14.682.77 21.252 3.233 5.717 8.96 9.974 15.413 10.38.332.046.663.088.997.122a18.588 18.588 0 0 0 3.087 3.827c3.645 3.461 12.335 5.236 17.291 5.35.255.203.511.407.768.609 3.032 2.382 6.215 4.785 9.696 6.48 2.359 1.149 5.451 2.109 7.911 1.279 1.116.745 2.947.588 4.054-.021 1.819-1 3.299-2.801 4.199-4.645 2.182-4.477 1.657-9.376 1.097-14.159-.617-5.283-1.211-10.569-1.814-15.851-.473-4.132-.967-8.331-2.226-12.311-.65-2.062-1.503-4.043-2.605-5.906a.965.965 0 0 0-.021-.46c-.361-1.171-1.107-1.785-1.99-2.581a14.145 14.145 0 0 1-.34-.313 10.73 10.73 0 0 0-1.42-1.365c-.195-.197-.387-.396-.58-.595-1.598-1.671-3.109-3.427-4.45-5.309-1.302-1.825-2.477-3.73-3.596-5.671-1.137-1.975-1.89-4.153-3.026-6.113a.312.312 0 0 0-.482-.062c-.351.363-.577.766-.534 1.19l-.176.026c-.066-.64-.658-1.161-1.46-1.021-1.202.208-2.19.287-3.23-.112.183-1.211.351-2.424.518-3.64.304-2.238.586-4.482.828-6.726a9.72 9.72 0 0 1 1.739.597 8.392 8.392 0 0 1 2.235 1.45c.646.593 1.092 1.392 1.881 1.804.907.472 2.002-.308 1.736-1.332-.54-2.069-3.591-3.254-5.479-3.645a8.778 8.778 0 0 0-1.974-.178 153.286 153.286 0 0 0 .537-6.376 10.812 10.812 0 0 1 4.567-.367c.503.401 1.007.796 1.494 1.197a297.659 297.659 0 0 1 5.015 4.214c.903.775 2.029.007 1.877-1.09-1.24-8.992 4.279-16.145 10.741-21.687 7.153-6.136 20.158-6.85 28.665-17.48 3.918.797 12.666 3.16 16.275 8.9 5.054 8.045 4.394 15.252 4.779 24.377.384 9.132 1.363 18.657-.715 27.661-1.917 8.303-7.106 15.397-15.157 18.658-.199.08-.401.159-.603.235-4.163 1.566-8.706 2.009-13.086 1.185-4.847-.915-8.894-3.129-12.926-5.852-.233-.154-.573.163-.397.396 5.315 7.029 15.755 9.378 24.036 7.522.388-.087.772-.182 1.155-.286-1.853 5.316-1.48 11.151.933 16.327 1.451 3.114 3.664 5.809 6.36 7.935 2.971 2.342 6.657 4.233 8.718 7.521 1.888 3.012 1.328 6.396-1.904 8.136-.815.441-1.129 1.865-.321 2.491.309.237.617.479.933.716 1.81 1.363 6.781 3.922 7.586 4.017 7.148.846 11.955-4.392 15.035-10.57 3.617-7.253 2.677-16.091-1.308-22.998-3.197-5.541-9.493-11.002-6.99-18.015.893-2.505 2.719-4.64 4.494-6.57 2.023-2.197 4.198-4.254 6.139-6.529 1.928-2.259 3.638-4.717 4.593-7.551 1.394-4.143.7-8.623-.347-12.759-2.244-8.878-5.158-17.638-8.262-26.249Z" clip-rule="evenodd"/><path fill="#000" fill-rule="evenodd" d="M197.519 143.848a9.666 9.666 0 0 1-4.062-3.119c-.362-.482-.456-.99-.38-1.455.085-.523.395-.997.818-1.315.424-.319.955-.476 1.467-.396.446.07.89.313 1.241.818l.073.101a6.397 6.397 0 0 0 2.345 1.964 5.302 5.302 0 0 0 2.903.51c1.953-.221 3.299-1.275 4.73-2.706.177-.181.354-.367.533-.557a.84.84 0 0 1 .442-.34.958.958 0 0 1 .61.009.971.971 0 0 1 .481.363c.109.161.171.36.151.588-.131 1.484-.908 2.808-2.012 3.847-1.226 1.155-2.851 1.953-4.381 2.234-1.686.308-3.403.087-4.959-.546Zm5.754-22.886c1.794 1.088 4.526 3.625 2.597 6.322-2.271 2.378-5.541-.349-7.152-1.582-1.494-.955-3.173 1.503-1.786 2.619 11.642 8.602 16.367-7.074 7.248-8.638-1.004-.172-1.377.943-.907 1.279Zm-20.864-10.006c.199-2.455 3.944-3.012 4.317-.584.334 2.176-.059 4.175-1.041 6.134-.938 1.871-3.297.998-3.475-.706-.239-2.284.076-3.318.199-4.844Zm28.514-1.087c.523-.683 1.277-1.149 2.18-.885 2.823.823 1.991 4.822.999 6.768-.538 1.057-2.279 1.325-3.066.395-1.283-1.518-1.897-4.549-.266-6.044.044-.078.093-.156.153-.234Zm-25.278-9.654.446-.078c1.379-.238 3.094-.467 4.07.64.517.587.696 1.678 0 2.239-1.224.989-2.576.606-4.043.689a16.105 16.105 0 0 0-3.533.601c-2.554.728-4.634 2.058-6.815 3.518-.286.192-.578-.174-.442-.441 1.259-2.461 3.699-4.482 6.143-5.714 1.304-.658 2.731-1.204 4.174-1.454Zm22.705-1.102.342.07c3.713.774 8.538 2.322 10.297 5.962.067.515-.004.625-.062.697l-.019.024c-.047.062-.085.147-.309.217l-.188-.047c-.806-.211-1.444-.502-2.061-.803l-.669-.329c-.777-.38-1.561-.746-2.391-1.017a28.195 28.195 0 0 0-5.446-1.2c-.401-.047-.788-.182-1.093-.414a1.64 1.64 0 0 1-.611-.929c-.13-.523-.093-.919.189-1.392.211-.355.514-.6.862-.742a2.026 2.026 0 0 1 1.159-.097Z" clip-rule="evenodd"/></svg>